{"title":"Forensic Files S08E42 Flashover theMDR","uid":10059766,"size":200121569,"categoryP":"video","categoryS":"tv_shows","magnet":"?xt=urn:btih:0a65a3835187f66143937a34dfa6d6aa77856440&amp;dn=Forensic+Files+S08E42+Flashover+theMDR&amp;tr=udp%3A%2F%2Ftracker.openbittorrent.com%3A80&amp;tr=udp%3A%2F%2Fopen.demonii.com%3A1337&amp;tr=udp%3A%2F%2Ftracker.coppersurfer.tk%3A6969&amp;tr=udp%3A%2F%2Fexodus.desync.com%3A6969","seeders":1,"leechers":0,"uploader":"holm3","files":1,"time":1398714218,"description":"\ntheMDR = The Media Done Right\n\nFormat                                   : MPEG-4\nFormat profile                           : Base Media\nCodec ID                                 : isom\nFile size                                : 191 MiB\nDuration                                 : 20mn 2s\nOverall bit rate mode                    : Variable\nOverall bit rate                         : 1 331 Kbps\n\nVideo\nID                                       : 1\nFormat                                   : AVC\nFormat/Info                              : Advanced Video Codec\nFormat profile                           : &lt;a class=&quot;__cf_email__&quot; href=&quot;/cdn-cgi/l/email-protection&quot; data-cfemail=&quot;d59dbcb2bd9599e6fbe4&quot;&gt;[email&amp;#160;protected]&lt;/a&gt;&lt;script cf-hash='f9e31' type=&quot;text/javascript&quot;&gt;\n/* &lt;![CDATA[ */!function(){try{var t=&quot;currentScript&quot;in document?document.currentScript:function(){for(var t=document.getElementsByTagName(&quot;script&quot;),e=t.length;e--;)if(t[e].getAttribute(&quot;cf-hash&quot;))return t[e]}();if(t&amp;&amp;t.previousSibling){var e,r,n,i,c=t.previousSibling,a=c.getAttribute(&quot;data-cfemail&quot;);if(a){for(e=&quot;&quot;,r=parseInt(a.substr(0,2),16),n=2;a.length-n;n+=2)i=parseInt(a.substr(n,2),16)^r,e+=String.fromCharCode(i);e=document.createTextNode(e),c.parentNode.replaceChild(e,c)}}}catch(u){}}();/* ]]&gt; */&lt;/script&gt;\nFormat settings, CABAC                   : Yes\nFormat settings, ReFrames                : 5 frames\nCodec ID                                 : avc1\nCodec ID/Info                            : Advanced Video Coding\nDuration                                 : 20mn 2s\nBit rate mode                            : Variable\nBit rate                                 : 1 200 Kbps\nMaximum bit rate                         : 17.5 Mbps\nWidth                                    : 640 pixels\nHeight                                   : 480 pixels\nDisplay aspect ratio                     : 4:3\nFrame rate mode                          : Constant\nFrame rate                               : 23.976 fps\nColor space                              : YUV\nChroma subsampling                       : 4:2:0\nBit depth                                : 8 bits\nScan type                                : Progressive\nBits/(Pixel*Frame)                       : 0.163\nStream size                              : 172 MiB (90%)\n\nAudio\nID                                       : 2\nFormat                                   : AAC\nFormat/Info                              : Advanced Audio Codec\nFormat profile                           : LC\nCodec ID                                 : 40\nDuration                                 : 20mn 2s\nBit rate mode                            : Variable\nBit rate                                 : 128 Kbps\nMaximum bit rate                         : 133 Kbps\nChannel(s)                               : 2 channels\nChannel positions                        : Front: L R\nSampling rate                            : 48.0 KHz\nCompression mode                         : Lossy\nStream size                              : 18.4 MiB (10%)\nLanguage                                 : English\n\n\nA fire erupted in the Kings Cross Underground Station in London, killing 31 people and injuring dozens more. Arson investigators were able to pinpoint the cause of the fire, but it would take state-of-the-art computer technology and experts in the field of fluid dynamics to explain why it became a deadly inferno.","torrent":{"xt":"urn:btih:0a65a3835187f66143937a34dfa6d6aa77856440","amp;dn":"Forensic+Files+S08E42+Flashover+theMDR","amp;tr":["udp%3A%2F%2Ftracker.openbittorrent.com%3A80","udp%3A%2F%2Fopen.demonii.com%3A1337","udp%3A%2F%2Ftracker.coppersurfer.tk%3A6969","udp%3A%2F%2Fexodus.desync.com%3A6969"],"infoHash":"0a65a3835187f66143937a34dfa6d6aa77856440","infoHashBuffer":{"type":"Buffer","data":[10,101,163,131,81,135,246,97,67,147,122,52,223,166,214,170,119,133,100,64]},"announce":[],"urlList":[]}}